<mxfile host="app.diagrams.net" modified="2024-02-09T20:28:47.906Z" agent="Mozilla/5.0 (Windows NT 10.0; Win64; x64) AppleWebKit/537.36 (KHTML, like Gecko) Chrome/120.0.0.0 Safari/537.36" etag="SxUJkyIXhWYRcLoiTrhl" version="23.1.1" type="github">
  <diagram name="第 1 页" id="gCn5y6iDQdJzFsjdhJAQ">
    <mxGraphModel dx="2074" dy="3478" grid="1" gridSize="10" guides="1" tooltips="1" connect="1" arrows="1" fold="1" page="1" pageScale="1" pageWidth="827" pageHeight="1169" math="0" shadow="0">
      <root>
        <mxCell id="0" />
        <mxCell id="1" parent="0" />
        <mxCell id="vtA-RNlgkXTQP00N-WAl-3" value="" style="edgeStyle=orthogonalEdgeStyle;rounded=0;orthogonalLoop=1;jettySize=auto;html=1;entryX=0.5;entryY=0;entryDx=0;entryDy=0;" edge="1" parent="1" source="vtA-RNlgkXTQP00N-WAl-4" target="vtA-RNlgkXTQP00N-WAl-7">
          <mxGeometry relative="1" as="geometry">
            <mxPoint x="342.25" y="-1930" as="targetPoint" />
          </mxGeometry>
        </mxCell>
        <mxCell id="vtA-RNlgkXTQP00N-WAl-4" value="" style="ellipse;whiteSpace=wrap;html=1;rounded=0;shadow=0;comic=0;labelBackgroundColor=none;strokeWidth=1;fillColor=#000000;fontFamily=Verdana;fontSize=12;align=center;" vertex="1" parent="1">
          <mxGeometry x="342.37" y="-2180" width="40" height="40" as="geometry" />
        </mxCell>
        <mxCell id="vtA-RNlgkXTQP00N-WAl-5" value="" style="shape=mxgraph.bpmn.shape;html=1;verticalLabelPosition=bottom;labelBackgroundColor=#ffffff;verticalAlign=top;perimeter=ellipsePerimeter;outline=end;symbol=terminate;rounded=0;shadow=0;comic=0;strokeWidth=1;fontFamily=Verdana;fontSize=12;align=center;" vertex="1" parent="1">
          <mxGeometry x="342.38" y="-1720" width="40" height="40" as="geometry" />
        </mxCell>
        <mxCell id="vtA-RNlgkXTQP00N-WAl-6" value="" style="edgeStyle=orthogonalEdgeStyle;rounded=0;orthogonalLoop=1;jettySize=auto;html=1;" edge="1" parent="1" source="vtA-RNlgkXTQP00N-WAl-7" target="vtA-RNlgkXTQP00N-WAl-14">
          <mxGeometry relative="1" as="geometry" />
        </mxCell>
        <mxCell id="vtA-RNlgkXTQP00N-WAl-7" value="play a puzzle" style="rounded=1;whiteSpace=wrap;html=1;shadow=0;comic=0;labelBackgroundColor=none;strokeWidth=1;fontFamily=Verdana;fontSize=12;align=center;arcSize=50;" vertex="1" parent="1">
          <mxGeometry x="284.75" y="-2110" width="155.25" height="60" as="geometry" />
        </mxCell>
        <mxCell id="vtA-RNlgkXTQP00N-WAl-13" value="" style="edgeStyle=orthogonalEdgeStyle;rounded=0;orthogonalLoop=1;jettySize=auto;html=1;" edge="1" parent="1" source="vtA-RNlgkXTQP00N-WAl-14">
          <mxGeometry relative="1" as="geometry">
            <mxPoint x="362.4000000000001" y="-1929.98" as="targetPoint" />
          </mxGeometry>
        </mxCell>
        <mxCell id="vtA-RNlgkXTQP00N-WAl-14" value="restart the puzzle" style="rounded=1;whiteSpace=wrap;html=1;shadow=0;comic=0;labelBackgroundColor=none;strokeWidth=1;fontFamily=Verdana;fontSize=12;align=center;arcSize=50;" vertex="1" parent="1">
          <mxGeometry x="284.74" y="-2020" width="155.25" height="60" as="geometry" />
        </mxCell>
        <mxCell id="vtA-RNlgkXTQP00N-WAl-18" value="" style="edgeStyle=orthogonalEdgeStyle;rounded=0;orthogonalLoop=1;jettySize=auto;html=1;" edge="1" parent="1" source="vtA-RNlgkXTQP00N-WAl-15" target="vtA-RNlgkXTQP00N-WAl-16">
          <mxGeometry relative="1" as="geometry" />
        </mxCell>
        <mxCell id="vtA-RNlgkXTQP00N-WAl-15" value="reset attempts and hints counter" style="rounded=1;whiteSpace=wrap;html=1;shadow=0;comic=0;labelBackgroundColor=none;strokeWidth=1;fontFamily=Verdana;fontSize=12;align=center;arcSize=50;" vertex="1" parent="1">
          <mxGeometry x="284.76" y="-1930" width="155.25" height="60" as="geometry" />
        </mxCell>
        <mxCell id="vtA-RNlgkXTQP00N-WAl-17" value="" style="edgeStyle=orthogonalEdgeStyle;rounded=0;orthogonalLoop=1;jettySize=auto;html=1;" edge="1" parent="1" source="vtA-RNlgkXTQP00N-WAl-16" target="vtA-RNlgkXTQP00N-WAl-5">
          <mxGeometry relative="1" as="geometry" />
        </mxCell>
        <mxCell id="vtA-RNlgkXTQP00N-WAl-16" value="play this puzzle as a new begining" style="rounded=1;whiteSpace=wrap;html=1;shadow=0;comic=0;labelBackgroundColor=none;strokeWidth=1;fontFamily=Verdana;fontSize=12;align=center;arcSize=50;" vertex="1" parent="1">
          <mxGeometry x="284.74" y="-1840" width="155.25" height="60" as="geometry" />
        </mxCell>
      </root>
    </mxGraphModel>
  </diagram>
</mxfile>
